<svg width="16" height="16" viewBox="0 0 16 16" fill="none" xmlns="http://www.w3.org/2000/svg">
<path d="M8.98334 4.66702V4.66667V1.33334C8.98334 1.13508 9.04887 0.975771 9.1794 0.845235C9.30992 0.714719 9.46884 0.649537 9.66632 0.650003H9.66667H14.6667C14.8649 0.650003 15.0242 0.715534 15.1548 0.846069C15.2853 0.976586 15.3505 1.13551 15.35 1.33298V1.33334V4.66667C15.35 4.86493 15.2845 5.02424 15.1539 5.15477C15.0234 5.28529 14.8645 5.35047 14.667 5.35H14.6667H9.66667C9.46841 5.35 9.3091 5.28447 9.17857 5.15394C9.04805 5.02342 8.98287 4.8645 8.98334 4.66702ZM0.650003 8.00036V8V1.33334C0.650003 1.13508 0.715534 0.975771 0.846069 0.845236C0.976586 0.714719 1.1355 0.649537 1.33298 0.650003H1.33334H6.33334C6.53159 0.650003 6.6909 0.715534 6.82144 0.846069C6.95195 0.976586 7.01714 1.1355 7.01667 1.33298V1.33334V8C7.01667 8.19826 6.95114 8.35757 6.8206 8.4881C6.69009 8.61862 6.53117 8.6838 6.33369 8.68334H6.33334H1.33334C1.13508 8.68334 0.975771 8.61781 0.845235 8.48727C0.714719 8.35675 0.649537 8.19783 0.650003 8.00036ZM8.98334 14.667V14.6667V8C8.98334 7.80175 9.04887 7.64244 9.1794 7.5119C9.30992 7.38139 9.46884 7.3162 9.66632 7.31667H9.66667H14.6667C14.8649 7.31667 15.0242 7.3822 15.1548 7.51274C15.2853 7.64325 15.3505 7.80217 15.35 7.99965V8V14.6667C15.35 14.8649 15.2845 15.0242 15.1539 15.1548C15.0234 15.2853 14.8645 15.3505 14.667 15.35H14.6667H9.66667C9.46841 15.35 9.3091 15.2845 9.17857 15.1539C9.04805 15.0234 8.98287 14.8645 8.98334 14.667ZM0.650003 14.667V14.6667V11.3333C0.650003 11.1351 0.715534 10.9758 0.846069 10.8452C0.976586 10.7147 1.1355 10.6495 1.33298 10.65H1.33334H6.33334C6.53159 10.65 6.6909 10.7155 6.82144 10.8461C6.95195 10.9766 7.01714 11.1355 7.01667 11.333V11.3333V14.6667C7.01667 14.8649 6.95114 15.0242 6.8206 15.1548C6.69009 15.2853 6.53117 15.3505 6.33369 15.35H6.33334H1.33334C1.13508 15.35 0.975771 15.2845 0.845235 15.1539C0.714719 15.0234 0.649537 14.8645 0.650003 14.667ZM2.01667 7.16667V7.31667H2.16667H5.5H5.65V7.16667V2.16667V2.01667H5.5H2.16667H2.01667V2.16667V7.16667ZM10.35 13.8333V13.9833H10.5H13.8333H13.9833V13.8333V8.83334V8.68334H13.8333H10.5H10.35V8.83334V13.8333ZM10.35 3.83334V3.98334H10.5H13.8333H13.9833V3.83334V2.16667V2.01667H13.8333H10.5H10.35V2.16667V3.83334ZM2.01667 13.8333V13.9833H2.16667H5.5H5.65V13.8333V12.1667V12.0167H5.5H2.16667H2.01667V12.1667V13.8333ZM9.66667 0.500003H14.6667C14.9028 0.500003 15.1008 0.580003 15.2608 0.740003C15.4208 0.900003 15.5006 1.09778 15.5 1.33334V4.66667C15.5 4.90278 15.42 5.10084 15.26 5.26084C15.1 5.42084 14.9022 5.50056 14.6667 5.5H9.66667C9.43056 5.5 9.2325 5.42 9.0725 5.26C8.9125 5.1 8.83278 4.90223 8.83334 4.66667L9.66667 0.500003ZM1.33334 0.500003H6.33334C6.56945 0.500003 6.7675 0.580003 6.9275 0.740003C7.0875 0.900003 7.16723 1.09778 7.16667 1.33334V8C7.16667 8.23611 7.08667 8.43417 6.92667 8.59417C6.76667 8.75417 6.56889 8.83389 6.33334 8.83334L1.33334 0.500003ZM9.66667 7.16667H14.6667C14.9028 7.16667 15.1008 7.24667 15.2608 7.40667C15.4208 7.56667 15.5006 7.76445 15.5 8V14.6667C15.5 14.9028 15.42 15.1008 15.26 15.2608C15.1 15.4208 14.9022 15.5006 14.6667 15.5H9.66667C9.43056 15.5 9.2325 15.42 9.0725 15.26C8.9125 15.1 8.83278 14.9022 8.83334 14.6667L9.66667 7.16667ZM1.33334 10.5H6.33334C6.56945 10.5 6.7675 10.58 6.9275 10.74C7.0875 10.9 7.16723 11.0978 7.16667 11.3333V14.6667C7.16667 14.9028 7.08667 15.1008 6.92667 15.2608C6.76667 15.4208 6.56889 15.5006 6.33334 15.5L1.33334 10.5Z" fill="#262626" stroke="white" stroke-width="0.3"/>
</svg>
