<svg width="24" height="24" viewBox="0 0 24 24" fill="none" xmlns="http://www.w3.org/2000/svg">
<path d="M14.1667 17.5714H18.25V18.7143H14.1667V17.5714ZM15.3333 19.8571H17.0833V21H15.3333V19.8571ZM18.25 16.4286H17.0833C17.0833 15.8 17.3167 15.2857 17.7833 14.8286L18.075 14.5429C18.5417 14.0857 18.8333 13.4 18.8333 12.7143C18.8333 11.2857 17.6667 10.1429 16.2083 10.1429C14.75 10.1429 13.5833 11.2857 13.5833 12.7143C13.5833 13.4 13.875 14.0286 14.3417 14.5429L14.6333 14.8286C15.1 15.2857 15.3333 15.8 15.3333 16.4286H14.1667C14.1667 16.1429 14.05 15.8571 13.8167 15.6286L13.525 15.3429C12.825 14.6571 12.4167 13.6857 12.4167 12.7143C12.4167 10.6571 14.1083 9 16.2083 9C18.3083 9 20 10.6571 20 12.7143C20 13.6857 19.5917 14.6571 18.8917 15.3429L18.6 15.6286C18.3667 15.8571 18.25 16.1429 18.25 16.4286ZM6 15.8571H10.6667V17H6V15.8571Z" fill="#262626"/>
<path d="M6 13.6H7.90909V15H6V13.6ZM6 10.8H10.4545V12.2H6V10.8ZM8.54545 8H13V9.4H8.54545V8Z" fill="#262626"/>
<path d="M12 6H14V7H12V6Z" fill="#262626"/>
<path d="M10.5 7C10.7761 7 11 6.77614 11 6.5C11 6.22386 10.7761 6 10.5 6C10.2239 6 10 6.22386 10 6.5C10 6.77614 10.2239 7 10.5 7Z" fill="#262626"/>
<path d="M6 6H8V7H6V6Z" fill="#262626"/>
<path d="M13.4545 18.8571H5.18182V5.14286H15.8182V7.42857H17V5.14286C17 4.51429 16.4682 4 15.8182 4H5.18182C4.53182 4 4 4.51429 4 5.14286V18.8571C4 19.4857 4.53182 20 5.18182 20H13.4545V18.8571Z" fill="#262626"/>
</svg>
