<svg width="40" height="40" viewBox="0 0 40 40" fill="none" xmlns="http://www.w3.org/2000/svg">
<g id="Notification">
<path id="Icon" d="M21.2691 8.02069L21.2691 8.41251L21.6571 8.46645C22.7928 8.62427 23.9098 8.94517 24.9701 9.429C27.9627 10.7945 29.8636 13.7075 29.8636 16.8985V25.1943C29.8636 27.5141 30.8515 29.7276 32.5885 31.3128C32.9663 31.6575 32.9831 32.2268 32.6291 32.5915C32.45 32.776 32.1972 32.8833 31.9295 32.8833L24.8636 32.8832L24.5486 32.8832L24.4408 33.1791C23.7981 34.9424 22.0576 36.2167 20.0003 36.2167C17.943 36.2167 16.2026 34.9424 15.5599 33.1791L15.452 32.8832L15.1371 32.8832L8.07113 32.8833C7.53099 32.8833 7.11699 32.4623 7.11699 31.9718C7.11699 31.7253 7.22184 31.4864 7.41212 31.3128C9.14914 29.7276 10.1371 27.5141 10.1371 25.1943V16.8985C10.1371 13.7075 12.0379 10.7945 15.0305 9.429C16.0909 8.94517 17.2078 8.62427 18.3435 8.46645L18.7316 8.41251L18.7316 8.02069L18.7315 6.66667C18.7315 6.66665 18.7315 6.66664 18.7315 6.66663C18.7315 6.05816 19.2035 5.53694 19.8386 5.45975L20.0003 5.4507L20.1621 5.45975C20.7427 5.53035 21.1888 5.97383 21.2593 6.51357L21.2692 6.68002L21.2691 8.02069ZM22.2518 33.6396L22.9498 32.8841L21.9213 32.8842L18.0796 32.8845L17.051 32.8846L17.7492 33.64C18.2435 34.1748 18.9353 34.5315 19.7105 34.6033L19.7209 34.6043L19.7313 34.6047L19.9796 34.6162L19.99 34.6167H20.0003C20.8918 34.6167 21.6965 34.2407 22.2518 33.6396ZM12.6872 16.5237L12.6867 16.5311L12.6865 16.5386L12.6751 16.8837L12.6748 16.8911V16.8985V25.1943C12.6748 26.7614 12.3242 28.2924 11.6658 29.6896L11.6117 29.7958L11.2785 30.45H12.0127H27.9862H28.7105L28.3896 29.8007L28.336 29.692C27.7436 28.4355 27.4 27.0709 27.3365 25.669L27.3258 25.1893V16.8985C27.3258 14.7606 26.1233 12.8119 24.2225 11.7958L24.2162 11.7924L24.2099 11.7893L23.8927 11.6323L23.8928 11.6321L23.88 11.6263C21.4224 10.5049 18.5782 10.5049 16.1207 11.6263C14.1395 12.5303 12.827 14.4099 12.6872 16.5237Z" fill="#092C63" stroke="white" stroke-width="0.9"/>
</g>
</svg>
