<svg width="17" height="7" viewBox="0 0 17 7" fill="none" xmlns="http://www.w3.org/2000/svg">
<g id="Beta">
<path d="M0 6.38616V0H1.84684C2.281 0 2.66009 0.0550809 2.9841 0.165243C3.31458 0.268925 3.57055 0.437408 3.75199 0.670693C3.93344 0.897497 4.02416 1.19558 4.02416 1.56495C4.02416 1.88248 3.94316 2.1676 3.78115 2.42033C3.61915 2.67305 3.38262 2.84801 3.07158 2.94522V2.9841C3.46687 3.05538 3.78439 3.22062 4.02416 3.47983C4.2704 3.73255 4.39352 4.07924 4.39352 4.51989C4.39352 4.93461 4.29308 5.2813 4.0922 5.55995C3.89131 5.83859 3.60943 6.04596 3.24654 6.18204C2.88366 6.31812 2.46569 6.38616 1.99264 6.38616H0ZM0.719294 5.81267H1.876C2.44625 5.81267 2.89014 5.70575 3.20766 5.4919C3.52519 5.27806 3.68395 4.94757 3.68395 4.50045C3.68395 4.0922 3.52843 3.79087 3.21738 3.59647C2.90634 3.39558 2.45921 3.29514 1.876 3.29514H0.719294V5.81267ZM0.719294 2.74109H1.70103C2.27128 2.74109 2.68277 2.64389 2.9355 2.44949C3.18822 2.25508 3.31458 1.9894 3.31458 1.65243C3.31458 1.25714 3.18174 0.978498 2.91606 0.816495C2.65037 0.654492 2.25832 0.57349 1.73991 0.57349H0.719294V2.74109Z" fill="#092C63"/>
<path d="M7.48416 6.5028C7.07592 6.5028 6.70007 6.4056 6.35662 6.2112C6.01966 6.01031 5.75073 5.72843 5.54985 5.36554C5.34896 4.99617 5.24852 4.55229 5.24852 4.03388C5.24852 3.52195 5.34896 3.0813 5.54985 2.71193C5.75073 2.34256 6.00993 2.05744 6.32746 1.85656C6.65147 1.65567 6.99491 1.55523 7.3578 1.55523C7.74661 1.55523 8.08033 1.64595 8.35898 1.82739C8.63763 2.00884 8.84823 2.2648 8.99079 2.59529C9.13983 2.9193 9.21436 3.3081 9.21436 3.76171C9.21436 3.83947 9.21112 3.91723 9.20464 3.995C9.20464 4.06628 9.19816 4.13108 9.18519 4.1894H5.80257L5.79285 3.67423H8.58254C8.58254 3.16878 8.47562 2.78645 8.26178 2.52725C8.04793 2.26156 7.74985 2.12872 7.36752 2.12872C7.13424 2.12872 6.90743 2.19676 6.68711 2.33284C6.46678 2.46893 6.28534 2.67629 6.14278 2.95494C6.00021 3.23358 5.92893 3.59323 5.92893 4.03388C5.92893 4.45508 6.00346 4.80501 6.1525 5.08366C6.30154 5.3623 6.49918 5.57291 6.74543 5.71547C6.99815 5.85803 7.27356 5.92931 7.57164 5.92931C7.81141 5.92931 8.02525 5.89367 8.21318 5.82239C8.40758 5.75111 8.59226 5.66039 8.76723 5.55023L9.02967 6.01679C8.82879 6.1464 8.60198 6.2598 8.34926 6.357C8.10301 6.4542 7.81465 6.5028 7.48416 6.5028Z" fill="#092C63"/>
<path d="M11.8309 6.5028C11.3449 6.5028 11.0047 6.36024 10.8103 6.07512C10.6224 5.78999 10.5284 5.42062 10.5284 4.96701V2.25508H9.81883V1.72047L10.5576 1.67187L10.645 0.340206H11.238V1.67187H12.5308V2.25508H11.238V4.98645C11.238 5.27806 11.2898 5.5081 11.3935 5.67659C11.5037 5.83859 11.7013 5.91959 11.9864 5.91959C12.0707 5.91959 12.1614 5.90663 12.2586 5.88071C12.3623 5.85479 12.453 5.82563 12.5308 5.79323L12.6766 6.32784C12.547 6.3732 12.4076 6.41208 12.2586 6.44448C12.1096 6.48336 11.967 6.5028 11.8309 6.5028Z" fill="#092C63"/>
<path d="M14.6892 6.5028C14.43 6.5028 14.1967 6.45096 13.9893 6.34728C13.782 6.2436 13.6167 6.09456 13.4936 5.90015C13.3705 5.69927 13.3089 5.45626 13.3089 5.17114C13.3089 4.65921 13.5422 4.26716 14.0088 3.995C14.4818 3.71635 15.227 3.52195 16.2444 3.41178C16.2444 3.19794 16.2152 2.99382 16.1569 2.79941C16.1051 2.60501 16.0046 2.44949 15.8556 2.33284C15.713 2.20972 15.5057 2.14816 15.2335 2.14816C14.9484 2.14816 14.6827 2.20324 14.4364 2.3134C14.1967 2.42357 13.9861 2.54021 13.8046 2.66333L13.5228 2.17732C13.6588 2.0866 13.8208 1.99264 14.0088 1.89544C14.1967 1.79823 14.404 1.71723 14.6309 1.65243C14.8577 1.58763 15.0974 1.55523 15.3501 1.55523C15.7325 1.55523 16.0403 1.63623 16.2736 1.79823C16.5068 1.96024 16.6753 2.1838 16.779 2.46893C16.8892 2.75405 16.9443 3.08778 16.9443 3.47011V6.38616H16.361L16.3027 5.81267H16.2736C16.0468 6.00059 15.8005 6.1626 15.5348 6.29868C15.2691 6.43476 14.9873 6.5028 14.6892 6.5028ZM14.8739 5.92931C15.1201 5.92931 15.3469 5.87423 15.5543 5.76407C15.7681 5.64743 15.9982 5.48218 16.2444 5.26834V3.88807C15.6871 3.95288 15.2465 4.0436 14.9225 4.16024C14.5985 4.2704 14.3652 4.40648 14.2226 4.56849C14.08 4.73049 14.0088 4.91841 14.0088 5.13226C14.0088 5.4109 14.093 5.61503 14.2615 5.74463C14.4364 5.86775 14.6406 5.92931 14.8739 5.92931Z" fill="#092C63"/>
</g>
</svg>
