<svg width="24" height="24" viewBox="0 0 24 24" fill="none" xmlns="http://www.w3.org/2000/svg">
<path fill-rule="evenodd" clip-rule="evenodd" d="M6.21538 4H6.15385C5.872 4 5.62954 4 5.41538 4.05046C5.08386 4.12967 4.78074 4.29911 4.53961 4.54001C4.29848 4.7809 4.12875 5.08385 4.04923 5.41528C4 5.62941 4 5.87063 4 6.15368V9.23037C4 9.51219 4 9.75463 4.05046 9.96877C4.12968 10.3003 4.29913 10.6034 4.54005 10.8445C4.78096 11.0856 5.08393 11.2553 5.41538 11.3348C5.62954 11.384 5.87077 11.384 6.15385 11.384H9.23077C9.51262 11.384 9.75508 11.384 9.96923 11.3336C10.3008 11.2544 10.6039 11.0849 10.845 10.844C11.0861 10.6031 11.2559 10.3002 11.3354 9.96877C11.3846 9.75463 11.3846 9.51342 11.3846 9.23037V6.15368C11.3846 5.87186 11.3846 5.62941 11.3342 5.41528C11.2549 5.08378 11.0855 4.78068 10.8446 4.53957C10.6037 4.29845 10.3007 4.12874 9.96923 4.04923C9.75508 4 9.51385 4 9.23077 4H6.21538ZM5.70215 5.2479C5.75508 5.2356 5.83754 5.23067 6.21538 5.23067H9.16923C9.54831 5.23067 9.62954 5.23437 9.68246 5.2479C9.79302 5.27434 9.8941 5.33088 9.97448 5.41126C10.0549 5.49163 10.1114 5.5927 10.1378 5.70325C10.1502 5.75494 10.1538 5.83617 10.1538 6.21521V9.16883C10.1538 9.54788 10.1502 9.62911 10.1366 9.68202C10.1102 9.79258 10.0536 9.89364 9.97325 9.97402C9.89287 10.0544 9.79179 10.1109 9.68123 10.1374C9.63077 10.1484 9.54954 10.1534 9.16923 10.1534H6.21538C5.83631 10.1534 5.75508 10.1497 5.70215 10.1361C5.59159 10.1097 5.49052 10.0532 5.41014 9.97279C5.32975 9.89241 5.27321 9.79135 5.24677 9.68079C5.23569 9.63034 5.23077 9.54911 5.23077 9.16883V6.21521C5.23077 5.83617 5.23446 5.75494 5.248 5.70202C5.27444 5.59147 5.33098 5.4904 5.41137 5.41003C5.49175 5.32965 5.59282 5.27311 5.70338 5.24667L5.70215 5.2479ZM14.8308 4H14.7692C14.4874 4 14.2449 4 14.0308 4.05046C13.6992 4.12967 13.3961 4.29911 13.155 4.54001C12.9139 4.7809 12.7441 5.08385 12.6646 5.41528C12.6154 5.62941 12.6154 5.87063 12.6154 6.15368V9.23037C12.6154 9.51219 12.6154 9.75463 12.6658 9.96877C12.7451 10.3003 12.9145 10.6034 13.1554 10.8445C13.3963 11.0856 13.6993 11.2553 14.0308 11.3348C14.2449 11.384 14.4862 11.384 14.7692 11.384H17.8462C18.128 11.384 18.3705 11.384 18.5846 11.3336C18.9161 11.2544 19.2193 11.0849 19.4604 10.844C19.7015 10.6031 19.8713 10.3002 19.9508 9.96877C20 9.75463 20 9.51342 20 9.23037V6.15368C20 5.87186 20 5.62941 19.9495 5.41528C19.8703 5.08378 19.7009 4.78068 19.46 4.53957C19.219 4.29845 18.9161 4.12874 18.5846 4.04923C18.3705 4 18.1292 4 17.8462 4H14.8308ZM14.3175 5.2479C14.3705 5.2356 14.4529 5.23067 14.8308 5.23067H17.7846C18.1637 5.23067 18.2449 5.23437 18.2978 5.2479C18.4084 5.27434 18.5095 5.33088 18.5899 5.41126C18.6702 5.49163 18.7268 5.5927 18.7532 5.70325C18.7655 5.75494 18.7692 5.83617 18.7692 6.21521V9.16883C18.7692 9.54788 18.7643 9.62911 18.752 9.68202C18.7256 9.79258 18.669 9.89364 18.5886 9.97402C18.5083 10.0544 18.4072 10.1109 18.2966 10.1374C18.2449 10.1497 18.1637 10.1534 17.7846 10.1534H14.8308C14.4517 10.1534 14.3705 10.1497 14.3175 10.1361C14.207 10.1097 14.1059 10.0532 14.0255 9.97279C13.9451 9.89241 13.8886 9.79135 13.8622 9.68079C13.8511 9.63034 13.8462 9.54911 13.8462 9.16883V6.21521C13.8462 5.83617 13.8498 5.75494 13.8634 5.70202C13.8898 5.59147 13.9464 5.4904 14.0268 5.41003C14.1071 5.32965 14.2082 5.27311 14.3188 5.24667L14.3175 5.2479ZM6.15385 12.6147H9.23077C9.51262 12.6147 9.75508 12.6147 9.96923 12.6652C10.3008 12.7444 10.6039 12.9138 10.845 13.1547C11.0861 13.3956 11.2559 13.6986 11.3354 14.03C11.3846 14.2441 11.3846 14.4853 11.3846 14.7684V17.8451C11.3846 18.1269 11.3846 18.3694 11.3342 18.5835C11.2549 18.915 11.0855 19.2181 10.8446 19.4592C10.6037 19.7003 10.3007 19.87 9.96923 19.9495C9.75508 19.9988 9.51385 19.9988 9.23077 19.9988H6.15385C5.872 19.9988 5.62954 19.9988 5.41538 19.9483C5.08386 19.8691 4.78074 19.6997 4.53961 19.4588C4.29848 19.2179 4.12875 18.9149 4.04923 18.5835C4 18.3694 4 18.1281 4 17.8451V14.7684C4 14.4866 4 14.2441 4.05046 14.03C4.12968 13.6985 4.29913 13.3954 4.54005 13.1543C4.78096 12.9132 5.08393 12.7435 5.41538 12.6639C5.62954 12.6147 5.87077 12.6147 6.15385 12.6147ZM6.21538 13.8454C5.83631 13.8454 5.75508 13.8491 5.70215 13.8626C5.59159 13.8891 5.49052 13.9456 5.41014 14.026C5.32975 14.1064 5.27321 14.2074 5.24677 14.318C5.23569 14.3684 5.23077 14.4497 5.23077 14.8299V17.7836C5.23077 18.1626 5.23446 18.2438 5.248 18.2967C5.27444 18.4073 5.33098 18.5084 5.41137 18.5887C5.49175 18.6691 5.59282 18.7257 5.70338 18.7521C5.75508 18.7644 5.83631 18.7681 6.21538 18.7681H9.16923C9.54831 18.7681 9.62954 18.7632 9.68246 18.7509C9.79302 18.7244 9.8941 18.6679 9.97448 18.5875C10.0549 18.5071 10.1114 18.4061 10.1378 18.2955C10.1502 18.2438 10.1538 18.1626 10.1538 17.7836V14.8299C10.1538 14.4509 10.1502 14.3697 10.1366 14.3167C10.1102 14.2062 10.0536 14.1051 9.97325 14.0247C9.89287 13.9444 9.79179 13.8878 9.68123 13.8614C9.63077 13.8503 9.54954 13.8454 9.16923 13.8454H6.21538ZM14.8308 12.6147H14.7692C14.4874 12.6147 14.2449 12.6147 14.0308 12.6652C13.6992 12.7444 13.3961 12.9138 13.155 13.1547C12.9139 13.3956 12.7441 13.6986 12.6646 14.03C12.6154 14.2441 12.6154 14.4853 12.6154 14.7684V17.8451C12.6154 18.1269 12.6154 18.3694 12.6658 18.5835C12.7451 18.915 12.9145 19.2181 13.1554 19.4592C13.3963 19.7003 13.6993 19.87 14.0308 19.9495C14.2449 20 14.4874 20 14.7692 20H17.8462C18.128 20 18.3705 20 18.5846 19.9495C18.9159 19.8701 19.2188 19.7006 19.4597 19.4597C19.7006 19.2188 19.8701 18.916 19.9495 18.5847C20 18.3706 20 18.1281 20 17.8463V14.7684C20 14.4866 20 14.2441 19.9495 14.03C19.8703 13.6985 19.7009 13.3954 19.46 13.1543C19.219 12.9132 18.9161 12.7435 18.5846 12.6639C18.3705 12.6147 18.1292 12.6147 17.8462 12.6147H14.8308ZM14.3175 13.8626C14.3705 13.8503 14.4529 13.8454 14.8308 13.8454H17.7846C18.1637 13.8454 18.2449 13.8491 18.2978 13.8626C18.4084 13.8891 18.5095 13.9456 18.5899 14.026C18.6702 14.1064 18.7268 14.2074 18.7532 14.318C18.7655 14.3697 18.7692 14.4509 18.7692 14.8299V17.7836C18.7692 18.1626 18.7643 18.2438 18.752 18.2967C18.7256 18.4073 18.669 18.5084 18.5886 18.5887C18.5083 18.6691 18.4072 18.7257 18.2966 18.7521C18.2449 18.7644 18.1637 18.7681 17.7846 18.7681H14.8308C14.4517 18.7681 14.3705 18.7632 14.3175 18.7509C14.207 18.7244 14.1059 18.6679 14.0255 18.5875C13.9451 18.5071 13.8886 18.4061 13.8622 18.2955C13.8511 18.2451 13.8462 18.1638 13.8462 17.7836V14.8299C13.8462 14.4509 13.8498 14.3697 13.8634 14.3167C13.8898 14.2062 13.9464 14.1051 14.0268 14.0247C14.1071 13.9444 14.2082 13.8878 14.3188 13.8614L14.3175 13.8626Z" fill="#114391"/>
</svg>
