<svg width="24" height="24" viewBox="0 0 24 24" fill="none" xmlns="http://www.w3.org/2000/svg">
<path d="M9.33333 20H14.6667M9.33333 20V15.5556M9.33333 20H4.53333C4.39188 20 4.25623 19.9438 4.15621 19.8438C4.05619 19.7438 4 19.6081 4 19.4667V16.0889C4 15.9474 4.05619 15.8118 4.15621 15.7118C4.25623 15.6117 4.39188 15.5556 4.53333 15.5556H9.33333M14.6667 20V9.33333M14.6667 20H19.4667C19.6081 20 19.7438 19.9438 19.8438 19.8438C19.9438 19.7438 20 19.6081 20 19.4667V4.53333C20 4.39188 19.9438 4.25623 19.8438 4.15621C19.7438 4.05619 19.6081 4 19.4667 4H15.2C15.0586 4 14.9229 4.05619 14.8229 4.15621C14.7229 4.25623 14.6667 4.39188 14.6667 4.53333V9.33333M9.33333 15.5556V9.86667C9.33333 9.72522 9.38952 9.58956 9.48954 9.48954C9.58956 9.38952 9.72522 9.33333 9.86667 9.33333H14.6667" stroke="#262626" stroke-width="1.2"/>
</svg>
