<svg width="24" height="24" viewBox="0 0 24 24" fill="none" xmlns="http://www.w3.org/2000/svg">
<g id="Send">
<path id="Icon" d="M20.9524 3.47875C21.0158 3.64689 21.0158 3.83236 20.9524 4.0005L13.9088 22.681C13.8128 22.9357 13.5284 23.0644 13.2737 22.9683C13.1578 22.9246 13.0626 22.8389 13.007 22.7282L9.15837 15.0612C9.11075 14.9663 9.0338 14.8894 8.93896 14.8418L1.27191 10.9931C1.02859 10.871 0.93036 10.5747 1.0525 10.3314C1.10806 10.2207 1.20326 10.135 1.31915 10.0913L19.9996 3.04775C20.3817 2.90367 20.8083 3.09664 20.9524 3.47875ZM17.2829 8.14208L11.0299 14.3951L13.2546 18.8267L17.2829 8.14208ZM15.9599 6.67708L5.17271 10.7448L9.64693 12.9901L15.9599 6.67708Z" fill="#4A4A4A"/>
</g>
</svg>
