<svg width="88" height="82" viewBox="0 0 88 82" fill="none" xmlns="http://www.w3.org/2000/svg">
<g id="Group 22">
<path id="Vector" d="M81.7661 82H5.54866C4.07759 81.9983 2.66726 81.4126 1.62705 80.3715C0.586842 79.3304 0.00170602 77.9188 0 76.4464V5.55356C0.00170602 4.08119 0.586842 2.66962 1.62705 1.6285C2.66726 0.587372 4.07759 0.00170753 5.54866 0H81.7661C83.2372 0.00170645 84.6476 0.587372 85.6878 1.6285C86.728 2.66962 87.3131 4.08119 87.3148 5.55356V76.4464C87.3131 77.9188 86.728 79.3304 85.6878 80.3715C84.6476 81.4126 83.2372 81.9983 81.7661 82Z" fill="#E6E6E6"/>
<path id="Vector_2" d="M65.6944 78.2033H9.33718C7.86806 78.2016 6.45961 77.6167 5.42079 76.577C4.38197 75.5372 3.7976 74.1275 3.7959 72.657V9.34218C3.7976 7.87174 4.38197 6.46201 5.42079 5.42225C6.45961 4.38249 7.86806 3.7976 9.33718 3.7959H77.9768C79.446 3.7976 80.8544 4.38249 81.8932 5.42225C82.9321 6.46201 83.5164 7.87174 83.5181 9.34218V60.3634C83.5128 65.0932 81.6332 69.6278 78.2918 72.9722C74.9503 76.3167 70.4199 78.198 65.6944 78.2033Z" fill="white"/>
<path id="Vector_3" d="M43.6578 66.0554C57.7053 66.0554 69.093 54.8377 69.093 40.9999C69.093 27.1621 57.7053 15.9443 43.6578 15.9443C29.6104 15.9443 18.2227 27.1621 18.2227 40.9999C18.2227 54.8377 29.6104 66.0554 43.6578 66.0554Z" fill="#6E90C5"/>
<path id="Vector_4" d="M54.1113 39.7574L45.8295 29.7375C45.6048 29.4658 45.3235 29.2458 45.0049 29.0929C44.6863 28.9399 44.3381 28.8577 43.9844 28.8519C43.6308 28.8461 43.2801 28.9168 42.9566 29.0591C42.6331 29.2015 42.3445 29.412 42.1109 29.6763L33.2545 39.6961C32.8279 40.18 32.6117 40.8125 32.6535 41.4548C32.6954 42.0971 32.9917 42.6967 33.4775 43.1217C33.9634 43.5467 34.5989 43.7625 35.2445 43.7217C35.8901 43.6809 36.4931 43.3867 36.9209 42.9039L41.5031 37.7197V50.7192C41.5031 51.3633 41.7602 51.9811 42.218 52.4365C42.6758 52.892 43.2967 53.1479 43.9441 53.1479C44.5916 53.1479 45.2124 52.892 45.6702 52.4365C46.128 51.9811 46.3852 51.3633 46.3852 50.7192V38.0574L50.3404 42.8427C50.7516 43.3402 51.3447 43.6548 51.989 43.7173C52.6334 43.7798 53.2763 43.585 53.7764 43.1759C54.2764 42.7668 54.5926 42.1768 54.6554 41.5357C54.7182 40.8946 54.5225 40.2549 54.1113 39.7574Z" fill="white"/>
</g>
</svg>
