<svg width="26" height="26" viewBox="0 0 26 26" fill="none" xmlns="http://www.w3.org/2000/svg">
<g id="Group 10">
<g id="Union">
<path fill-rule="evenodd" clip-rule="evenodd" d="M3 1C1.89543 1 1 1.89543 1 3V19.8696C1 20.9742 1.89543 21.8696 3 21.8696H14.879C16.5298 23.409 18.8155 25 21.5 25L19.5434 21.8696H23C24.1046 21.8696 25 20.9742 25 19.8696V3C25 1.89543 24.1046 1 23 1H3Z" fill="#EBF2FE"/>
<path d="M14.879 21.8696L15.3905 21.3211L15.1745 21.1196H14.879V21.8696ZM21.5 25V25.75H22.8532L22.136 24.6025L21.5 25ZM19.5434 21.8696V21.1196H18.1902L18.9074 22.2671L19.5434 21.8696ZM1.75 3C1.75 2.30964 2.30964 1.75 3 1.75V0.25C1.48122 0.25 0.25 1.48121 0.25 3H1.75ZM1.75 19.8696V3H0.25V19.8696H1.75ZM3 21.1196C2.30964 21.1196 1.75 20.56 1.75 19.8696H0.25C0.25 21.3884 1.48122 22.6196 3 22.6196V21.1196ZM14.879 21.1196H3V22.6196H14.879V21.1196ZM21.5 24.25C19.1085 24.25 17.003 22.8248 15.3905 21.3211L14.3675 22.4181C16.0566 23.9932 18.5224 25.75 21.5 25.75V24.25ZM18.9074 22.2671L20.864 25.3975L22.136 24.6025L20.1794 21.4721L18.9074 22.2671ZM23 21.1196H19.5434V22.6196H23V21.1196ZM24.25 19.8696C24.25 20.56 23.6904 21.1196 23 21.1196V22.6196C24.5188 22.6196 25.75 21.3884 25.75 19.8696H24.25ZM24.25 3V19.8696H25.75V3H24.25ZM23 1.75C23.6904 1.75 24.25 2.30964 24.25 3H25.75C25.75 1.48122 24.5188 0.25 23 0.25V1.75ZM3 1.75H23V0.25H3V1.75Z" fill="#092C63"/>
</g>
<g id="Vi">
<path d="M9.15948 17L6 7.01114H8.30214L9.61991 11.7758C9.78926 12.3375 9.93215 12.8788 10.0486 13.3997C10.1756 13.9104 10.3185 14.4466 10.4773 15.0084H10.5408C10.7101 14.4466 10.8583 13.9104 10.9853 13.3997C11.1123 12.8788 11.2499 12.3375 11.3981 11.7758L12.6841 7.01114H14.9228L11.7633 17H9.15948Z" fill="#092C63"/>
<path d="M16.682 17V9.41644H18.8571V17H16.682ZM17.7775 8.25209C17.4282 8.25209 17.1371 8.14485 16.9043 7.93036C16.6714 7.71588 16.555 7.44522 16.555 7.11838C16.555 6.79155 16.6714 6.526 16.9043 6.32173C17.1371 6.10724 17.4282 6 17.7775 6C18.1374 6 18.4284 6.10724 18.6507 6.32173C18.8836 6.526 19 6.79155 19 7.11838C19 7.44522 18.8836 7.71588 18.6507 7.93036C18.4284 8.14485 18.1374 8.25209 17.7775 8.25209Z" fill="#092C63"/>
</g>
</g>
</svg>
